<mxfile host="app.diagrams.net" agent="Mozilla/5.0 (Windows NT 10.0; Win64; x64) AppleWebKit/537.36 (KHTML, like Gecko) Chrome/131.0.0.0 Safari/537.36" version="26.0.6">
  <diagram name="第 1 页" id="6I2UhZg-BcKyQ3jJYedH">
    <mxGraphModel dx="1221" dy="725" grid="1" gridSize="10" guides="1" tooltips="1" connect="1" arrows="1" fold="1" page="1" pageScale="1" pageWidth="827" pageHeight="1169" math="0" shadow="0">
      <root>
        <mxCell id="0" />
        <mxCell id="1" parent="0" />
        <mxCell id="9jxXrbHA-Pas0No1Ytrj-1" value="Input Image" style="whiteSpace=wrap;strokeWidth=2;" vertex="1" parent="1">
          <mxGeometry x="557" y="20" width="145" height="54" as="geometry" />
        </mxCell>
        <mxCell id="9jxXrbHA-Pas0No1Ytrj-2" value="Convolutional Layer" style="whiteSpace=wrap;strokeWidth=2;" vertex="1" parent="1">
          <mxGeometry x="528" y="124" width="202" height="54" as="geometry" />
        </mxCell>
        <mxCell id="9jxXrbHA-Pas0No1Ytrj-3" value="Activation Function (ReLU)" style="whiteSpace=wrap;strokeWidth=2;" vertex="1" parent="1">
          <mxGeometry x="351" y="263" width="252" height="54" as="geometry" />
        </mxCell>
        <mxCell id="9jxXrbHA-Pas0No1Ytrj-4" value="Pooling Layer" style="whiteSpace=wrap;strokeWidth=2;" vertex="1" parent="1">
          <mxGeometry x="288" y="401" width="156" height="54" as="geometry" />
        </mxCell>
        <mxCell id="9jxXrbHA-Pas0No1Ytrj-5" value="Fully Connected Layer" style="whiteSpace=wrap;strokeWidth=2;" vertex="1" parent="1">
          <mxGeometry x="128" y="528" width="220" height="54" as="geometry" />
        </mxCell>
        <mxCell id="9jxXrbHA-Pas0No1Ytrj-6" value="Output Prediction" style="whiteSpace=wrap;strokeWidth=2;" vertex="1" parent="1">
          <mxGeometry x="20" y="655" width="187" height="54" as="geometry" />
        </mxCell>
        <mxCell id="9jxXrbHA-Pas0No1Ytrj-7" value="Low-Level Features (Edges, Lines)" style="whiteSpace=wrap;strokeWidth=2;" vertex="1" parent="1">
          <mxGeometry x="653" y="251" width="260" height="78" as="geometry" />
        </mxCell>
        <mxCell id="9jxXrbHA-Pas0No1Ytrj-8" value="Complex Features" style="whiteSpace=wrap;strokeWidth=2;" vertex="1" parent="1">
          <mxGeometry x="493" y="401" width="189" height="54" as="geometry" />
        </mxCell>
        <mxCell id="9jxXrbHA-Pas0No1Ytrj-9" value="Essential Features" style="whiteSpace=wrap;strokeWidth=2;" vertex="1" parent="1">
          <mxGeometry x="398" y="528" width="190" height="54" as="geometry" />
        </mxCell>
        <mxCell id="9jxXrbHA-Pas0No1Ytrj-10" value="Classification Results" style="whiteSpace=wrap;strokeWidth=2;" vertex="1" parent="1">
          <mxGeometry x="257" y="655" width="210" height="54" as="geometry" />
        </mxCell>
        <mxCell id="9jxXrbHA-Pas0No1Ytrj-11" value="Final Output" style="whiteSpace=wrap;strokeWidth=2;" vertex="1" parent="1">
          <mxGeometry x="39" y="759" width="150" height="54" as="geometry" />
        </mxCell>
        <mxCell id="9jxXrbHA-Pas0No1Ytrj-12" value="" style="curved=1;startArrow=none;endArrow=block;exitX=0.5;exitY=1;entryX=0.5;entryY=0;rounded=0;" edge="1" parent="1" source="9jxXrbHA-Pas0No1Ytrj-1" target="9jxXrbHA-Pas0No1Ytrj-2">
          <mxGeometry relative="1" as="geometry">
            <Array as="points" />
          </mxGeometry>
        </mxCell>
        <mxCell id="9jxXrbHA-Pas0No1Ytrj-13" value="" style="curved=1;startArrow=none;endArrow=block;exitX=0.18;exitY=1;entryX=0.5;entryY=-0.01;rounded=0;" edge="1" parent="1" source="9jxXrbHA-Pas0No1Ytrj-2" target="9jxXrbHA-Pas0No1Ytrj-3">
          <mxGeometry relative="1" as="geometry">
            <Array as="points">
              <mxPoint x="477" y="214" />
            </Array>
          </mxGeometry>
        </mxCell>
        <mxCell id="9jxXrbHA-Pas0No1Ytrj-14" value="" style="curved=1;startArrow=none;endArrow=block;exitX=0.34;exitY=0.99;entryX=0.5;entryY=0.01;rounded=0;" edge="1" parent="1" source="9jxXrbHA-Pas0No1Ytrj-3" target="9jxXrbHA-Pas0No1Ytrj-4">
          <mxGeometry relative="1" as="geometry">
            <Array as="points">
              <mxPoint x="366" y="365" />
            </Array>
          </mxGeometry>
        </mxCell>
        <mxCell id="9jxXrbHA-Pas0No1Ytrj-15" value="" style="curved=1;startArrow=none;endArrow=block;exitX=0.15;exitY=1.01;entryX=0.5;entryY=0;rounded=0;" edge="1" parent="1" source="9jxXrbHA-Pas0No1Ytrj-4" target="9jxXrbHA-Pas0No1Ytrj-5">
          <mxGeometry relative="1" as="geometry">
            <Array as="points">
              <mxPoint x="238" y="492" />
            </Array>
          </mxGeometry>
        </mxCell>
        <mxCell id="9jxXrbHA-Pas0No1Ytrj-16" value="" style="curved=1;startArrow=none;endArrow=block;exitX=0.26;exitY=1;entryX=0.5;entryY=-0.01;rounded=0;" edge="1" parent="1" source="9jxXrbHA-Pas0No1Ytrj-5" target="9jxXrbHA-Pas0No1Ytrj-6">
          <mxGeometry relative="1" as="geometry">
            <Array as="points">
              <mxPoint x="114" y="618" />
            </Array>
          </mxGeometry>
        </mxCell>
        <mxCell id="9jxXrbHA-Pas0No1Ytrj-17" value="Extracts Features" style="curved=1;startArrow=none;endArrow=block;exitX=0.83;exitY=1;entryX=0.5;entryY=0;rounded=0;" edge="1" parent="1" source="9jxXrbHA-Pas0No1Ytrj-2" target="9jxXrbHA-Pas0No1Ytrj-7">
          <mxGeometry relative="1" as="geometry">
            <Array as="points">
              <mxPoint x="783" y="214" />
            </Array>
          </mxGeometry>
        </mxCell>
        <mxCell id="9jxXrbHA-Pas0No1Ytrj-18" value="Introduces Non-Linearity" style="curved=1;startArrow=none;endArrow=block;exitX=0.66;exitY=0.99;entryX=0.5;entryY=0.01;rounded=0;" edge="1" parent="1" source="9jxXrbHA-Pas0No1Ytrj-3" target="9jxXrbHA-Pas0No1Ytrj-8">
          <mxGeometry relative="1" as="geometry">
            <Array as="points">
              <mxPoint x="588" y="365" />
            </Array>
          </mxGeometry>
        </mxCell>
        <mxCell id="9jxXrbHA-Pas0No1Ytrj-19" value="Reduces Dimensionality" style="curved=1;startArrow=none;endArrow=block;exitX=0.85;exitY=1.01;entryX=0.5;entryY=0;rounded=0;" edge="1" parent="1" source="9jxXrbHA-Pas0No1Ytrj-4" target="9jxXrbHA-Pas0No1Ytrj-9">
          <mxGeometry relative="1" as="geometry">
            <Array as="points">
              <mxPoint x="493" y="492" />
            </Array>
          </mxGeometry>
        </mxCell>
        <mxCell id="9jxXrbHA-Pas0No1Ytrj-20" value="Combines Features" style="curved=1;startArrow=none;endArrow=block;exitX=0.74;exitY=1;entryX=0.5;entryY=-0.01;rounded=0;" edge="1" parent="1" source="9jxXrbHA-Pas0No1Ytrj-5" target="9jxXrbHA-Pas0No1Ytrj-10">
          <mxGeometry relative="1" as="geometry">
            <Array as="points">
              <mxPoint x="363" y="618" />
            </Array>
          </mxGeometry>
        </mxCell>
        <mxCell id="9jxXrbHA-Pas0No1Ytrj-21" value="" style="curved=1;startArrow=none;endArrow=block;exitX=0.5;exitY=0.99;entryX=0.5;entryY=-0.01;rounded=0;" edge="1" parent="1" source="9jxXrbHA-Pas0No1Ytrj-6" target="9jxXrbHA-Pas0No1Ytrj-11">
          <mxGeometry relative="1" as="geometry">
            <Array as="points" />
          </mxGeometry>
        </mxCell>
      </root>
    </mxGraphModel>
  </diagram>
</mxfile>
